# xmcd
#
# Track frame offsets: 
#        150
#        18567
#        30532
#        44092
#        64070
#        86515
#        100302
#        121437
#        137215
#        152222
#        172000
#        197890
#        217384
#        240207
#        258952
#
# Disc length: 3886 seconds
#
# Revision: 0
# Processed by: cddbd v1.5.1PL2 Copyright (c) Steve Scherf et al.
# Submitted via: ExactAudioCopy v0.95a5
#
DISCID=dc0f2c0f
DTITLE=Rockin' Tabby Thomas - Annette Taborn - Along the Blues Highway
DYEAR=2003
DGENRE=Blues
TTITLE0=Hello-Goodbye
TTITLE1=I Ain't Got a Dime
TTITLE2=Leave It Like It Is
TTITLE3=Nose Wide Open
TTITLE4=Evil Woman - Catchin' Hell
TTITLE5=Tomorrow
TTITLE6=Caladonia
TTITLE7=I Love Big Fat Women
TTITLE8=So Long
TTITLE9=Little Old Juke Joint
TTITLE10=Get Your Money Where You Spend Your Time
TTITLE11=Bright Lights, Big City
TTITLE12=Mother Earth Blues
TTITLE13=No Cuttin' Loose
TTITLE14=Send Me Someone to Love
EXTD=
EXTT0=
EXTT1=
EXTT2=
EXTT3=
EXTT4=
EXTT5=
EXTT6=
EXTT7=
EXTT8=
EXTT9=
EXTT10=
EXTT11=
EXTT12=
EXTT13=
EXTT14=
PLAYORDER=
